<svg width="160" height="160" viewBox="0 0 160 160" fill="none" xmlns="http://www.w3.org/2000/svg">
<path d="M15.9997 17.555V132.916C15.9997 134.301 17.1943 135.424 18.6663 135.424H52.479C54.6007 135.424 56.6354 136.217 58.1357 137.628C59.636 139.039 60.4788 140.952 60.4788 142.948C60.4788 144.943 59.636 146.857 58.1357 148.268C56.6354 149.679 54.6007 150.471 52.479 150.471H18.6663C13.7157 150.471 8.96784 148.622 5.46723 145.33C1.96662 142.037 0 137.572 0 132.916V17.555C0 7.86463 8.3625 0 18.6663 0H109.331C119.635 0 127.997 7.86463 127.997 17.555V95.1581C127.997 97.1534 127.155 99.0671 125.654 100.478C124.154 101.889 122.119 102.682 119.998 102.682C117.876 102.682 115.841 101.889 114.341 100.478C112.841 99.0671 111.998 97.1534 111.998 95.1581V17.555C111.998 16.8899 111.717 16.252 111.217 15.7817C110.717 15.3114 110.038 15.0471 109.331 15.0471H18.6663C17.9591 15.0471 17.2808 15.3114 16.7807 15.7817C16.2806 16.252 15.9997 16.8899 15.9997 17.555ZM157.586 113.225L108.979 157.864C107.47 159.248 105.442 160.015 103.335 160C101.228 159.985 99.2125 159.189 97.7261 157.784L77.0011 138.223C75.5908 136.794 74.8252 134.906 74.8656 132.957C74.906 131.008 75.7493 129.15 77.2179 127.774C78.6864 126.398 80.6655 125.612 82.7381 125.581C84.8107 125.551 86.8151 126.278 88.3289 127.61L103.465 141.904L146.408 102.461C147.927 101.067 149.973 100.297 152.095 100.322C153.146 100.334 154.184 100.541 155.15 100.93C156.116 101.319 156.991 101.884 157.725 102.591C158.459 103.299 159.038 104.135 159.428 105.053C159.818 105.971 160.012 106.952 159.999 107.94C159.987 108.928 159.767 109.905 159.353 110.813C158.939 111.722 158.338 112.544 157.586 113.235M39.9992 40.1257H87.9983C90.12 40.1257 92.1547 40.9183 93.655 42.3293C95.1553 43.7402 95.9981 45.6539 95.9981 47.6492C95.9981 49.6446 95.1553 51.5583 93.655 52.9692C92.1547 54.3802 90.12 55.1728 87.9983 55.1728H39.9992C37.8775 55.1728 35.8427 54.3802 34.3425 52.9692C32.8422 51.5583 31.9994 49.6446 31.9994 47.6492C31.9994 45.6539 32.8422 43.7402 34.3425 42.3293C35.8427 40.9183 37.8775 40.1257 39.9992 40.1257ZM31.9994 77.7435C31.9994 75.7481 32.8422 73.8345 34.3425 72.4235C35.8427 71.0126 37.8775 70.2199 39.9992 70.2199H61.3321C63.4538 70.2199 65.4886 71.0126 66.9889 72.4235C68.4891 73.8345 69.332 75.7481 69.332 77.7435C69.332 79.7389 68.4891 81.6525 66.9889 83.0635C65.4886 84.4744 63.4538 85.2671 61.3321 85.2671H39.9992C37.8775 85.2671 35.8427 84.4744 34.3425 83.0635C32.8422 81.6525 31.9994 79.7389 31.9994 77.7435Z" fill="#683863"/>
<mask id="mask0_752_136" style="mask-type:alpha" maskUnits="userSpaceOnUse" x="0" y="0" width="160" height="160">
<path d="M15.9997 17.555V132.916C15.9997 134.301 17.1943 135.424 18.6663 135.424H52.479C54.6007 135.424 56.6354 136.217 58.1357 137.628C59.636 139.039 60.4788 140.952 60.4788 142.948C60.4788 144.943 59.636 146.857 58.1357 148.268C56.6354 149.679 54.6007 150.471 52.479 150.471H18.6663C13.7157 150.471 8.96784 148.622 5.46723 145.33C1.96662 142.037 0 137.572 0 132.916V17.555C0 7.86463 8.3625 0 18.6663 0H109.331C119.635 0 127.997 7.86463 127.997 17.555V95.1581C127.997 97.1534 127.155 99.0671 125.654 100.478C124.154 101.889 122.119 102.682 119.998 102.682C117.876 102.682 115.841 101.889 114.341 100.478C112.841 99.0671 111.998 97.1534 111.998 95.1581V17.555C111.998 16.8899 111.717 16.252 111.217 15.7817C110.717 15.3114 110.038 15.0471 109.331 15.0471H18.6663C17.9591 15.0471 17.2808 15.3114 16.7807 15.7817C16.2806 16.252 15.9997 16.8899 15.9997 17.555ZM157.586 113.225L108.979 157.864C107.47 159.248 105.442 160.015 103.335 160C101.228 159.985 99.2125 159.189 97.7261 157.784L77.0011 138.223C75.5908 136.794 74.8252 134.906 74.8656 132.957C74.906 131.008 75.7493 129.15 77.2179 127.774C78.6864 126.398 80.6655 125.612 82.7381 125.581C84.8107 125.551 86.8151 126.278 88.3289 127.61L103.465 141.904L146.408 102.461C147.927 101.067 149.973 100.297 152.095 100.322C153.146 100.334 154.184 100.541 155.15 100.93C156.116 101.319 156.991 101.884 157.725 102.591C158.459 103.299 159.038 104.135 159.428 105.053C159.818 105.971 160.012 106.952 159.999 107.94C159.987 108.928 159.767 109.905 159.353 110.813C158.939 111.722 158.338 112.544 157.586 113.235M39.9992 40.1257H87.9983C90.12 40.1257 92.1547 40.9183 93.655 42.3293C95.1553 43.7402 95.9981 45.6539 95.9981 47.6492C95.9981 49.6446 95.1553 51.5583 93.655 52.9692C92.1547 54.3802 90.12 55.1728 87.9983 55.1728H39.9992C37.8775 55.1728 35.8427 54.3802 34.3425 52.9692C32.8422 51.5583 31.9994 49.6446 31.9994 47.6492C31.9994 45.6539 32.8422 43.7402 34.3425 42.3293C35.8427 40.9183 37.8775 40.1257 39.9992 40.1257ZM31.9994 77.7435C31.9994 75.7481 32.8422 73.8345 34.3425 72.4235C35.8427 71.0126 37.8775 70.2199 39.9992 70.2199H61.3321C63.4538 70.2199 65.4886 71.0126 66.9889 72.4235C68.4891 73.8345 69.332 75.7481 69.332 77.7435C69.332 79.7389 68.4891 81.6525 66.9889 83.0635C65.4886 84.4744 63.4538 85.2671 61.3321 85.2671H39.9992C37.8775 85.2671 35.8427 84.4744 34.3425 83.0635C32.8422 81.6525 31.9994 79.7389 31.9994 77.7435Z" fill="#683863"/>
</mask>
<g mask="url(#mask0_752_136)">
<path d="M75 119.5L104.5 131.5L139.5 105L152 98L163 105L157.5 119.5L138 147.5L102.5 163L71.5 157L75 119.5Z" fill="#4EB145"/>
</g>
</svg>
